<svg version="1.2" xmlns="http://www.w3.org/2000/svg" viewBox="0 0 2048 2048" width="512" height="512">
	<defs>
		<linearGradient id="g1" x2="1" gradientUnits="userSpaceOnUse" gradientTransform="matrix(1893.415,1893.415,-1893.415,1893.415,550.354,77.482)">
			<stop offset="0" stop-color="#009689"/>
			<stop offset="1" stop-color="#0092b8"/>
		</linearGradient>
		<linearGradient id="g2" x2="1" gradientUnits="userSpaceOnUse" gradientTransform="matrix(1640.455,1640.455,-1640.455,1640.455,614.246,204.153)">
			<stop offset="0" stop-color="#009689"/>
			<stop offset="1" stop-color="#0092b8"/>
		</linearGradient>
		<filter x="-50%" y="-50%" width="200%" height="200%" id="f1" ><feDropShadow dx="-19.052558883257653" dy="10.999999999999998" stdDeviation="12.5" flood-color="#000000" flood-opacity=".3"/></filter>
		<linearGradient id="g3" x2="1" gradientUnits="userSpaceOnUse" gradientTransform="matrix(922.643,922.643,-921.765,921.765,1022.127,939.714)">
			<stop offset="0" stop-color="#009689"/>
			<stop offset=".1" stop-color="#009689"/>
			<stop offset=".9" stop-color="#0092b8"/>
			<stop offset="1" stop-color="#0092b8"/>
		</linearGradient>
	</defs>
	<style>
		.s0 { fill: url(#g1) } 
		.s1 { fill: #ffffff } 
		.s2 { fill: url(#g2) } 
		.s3 { filter: url(#f1);fill: #ffffff;stroke: url(#g3);stroke-miterlimit:100;stroke-width: 40 } 
	</style>
	<g id="Dossier 1">
		<path id="Calque 1" class="s0" d="m1023.71 20c18.14 0 36.29 3.94 52.86 11.44l742.77 315.14c86.78 36.68 151.47 122.27 151.08 225.61-1.98 391.27-162.92 1107.14-842.57 1432.54-65.88 31.55-142.41 31.55-208.28 0-679.66-325.4-840.6-1041.27-842.57-1432.54-0.39-103.34 64.3-188.93 151.08-225.61l743.16-315.14c16.18-7.5 34.32-11.44 52.47-11.44z"/>
		<path id="Forme 1" class="s1" d="m1024.21 97c16.75 0 33.51 3.64 48.81 10.56l685.89 291.01c80.13 33.87 139.87 112.91 139.51 208.33-1.82 361.31-150.44 1022.36-778.05 1322.84-60.83 29.14-131.49 29.14-192.32 0-627.61-300.48-776.23-961.53-778.05-1322.84-0.36-95.42 59.37-174.46 139.51-208.33l686.25-291.01c14.94-6.92 31.69-10.56 48.45-10.56z"/>
		<path id="Forme 2" class="s2" d="m1024.36 154.35c15.72 0 31.44 3.42 45.8 9.91l643.53 273.04c75.19 31.78 131.24 105.94 130.9 195.47-1.71 338.99-141.15 959.23-730.01 1241.15-57.07 27.34-123.37 27.34-180.45 0-588.85-281.92-728.29-902.16-730-1241.15-0.34-89.53 55.71-163.69 130.9-195.47l643.88-273.04c14.01-6.49 29.73-9.91 45.45-9.91z"/>
	</g>
	<path id="Calque 2" class="s1" d="m965.43 460.56c0-20.77 17.45-37.56 39.05-37.56h39.04c21.6 0 39.05 16.79 39.05 37.56v165.39l148.85-82.63c18.67-10.33 42.58-4.23 53.32 13.73l19.52 32.52c10.74 17.96 4.4 40.96-14.27 51.29l-148.86 82.64 148.86 82.64c18.67 10.33 25.01 33.33 14.27 51.29l-19.52 32.52c-10.74 17.96-34.65 24.18-53.32 13.73l-148.85-82.63v165.39c0 20.77-17.45 37.56-39.05 37.56h-39.04c-21.6 0-39.05-16.79-39.05-37.56v-165.39l-148.85 82.75c-18.67 10.33-42.58 4.23-53.32-13.73l-19.52-32.52c-10.74-17.96-4.4-40.97 14.27-51.3l148.86-82.75-148.86-82.64c-18.67-10.33-25.01-33.33-14.27-51.29l19.52-32.52c10.74-18.08 34.65-24.18 53.32-13.85l148.85 82.64z"/>
	<path id="Calque 3" fill-rule="evenodd" class="s3" d="m210.72 1170.37h1626.1c57.84 0 104.83 39.71 104.96 88.68l0.74 283.97c0.13 48.97-46.65 88.68-104.49 88.68h-1626.1c-57.84 0-104.82-39.71-104.95-88.68l-0.75-283.97c-0.13-48.97 46.65-88.68 104.49-88.68z"/>
</svg>